<svg width="20" height="19" viewBox="0 0 20 19" fill="none" xmlns="http://www.w3.org/2000/svg"><path d="M7.12496 15.8334C9.34163 15.8334 11.0833 14.0917 11.0833 11.875C11.0833 9.65835 9.34163 7.91669 7.12496 7.91669C4.90829 7.91669 3.16663 9.65835 3.16663 11.875C3.16663 14.0917 4.90829 15.8334 7.12496 15.8334ZM7.12496 9.50002C8.47079 9.50002 9.49996 10.5292 9.49996 11.875C9.49996 13.2209 8.47079 14.25 7.12496 14.25C5.77913 14.25 4.74996 13.2209 4.74996 11.875C4.74996 10.5292 5.77913 9.50002 7.12496 9.50002Z" fill="#5BD4D4"/><path d="M16.625 7.91669H12.6666V9.50002H16.625V7.91669Z" fill="#5BD4D4"/><path d="M16.625 11.0833H12.6666V12.6666H16.625V11.0833Z" fill="#5BD4D4"/><path d="M16.625 14.25H12.6666V15.8333H16.625V14.25Z" fill="#5BD4D4"/><path d="M12.4292 3.325C12.825 3.72083 13.3 3.95833 13.8542 3.95833C14.9625 3.95833 15.8333 3.0875 15.8333 1.97917C15.8333 0.870833 14.9625 0 13.8542 0C12.825 0 11.9542 0.791667 11.875 1.82083L5.38333 4.75H0V19H19.7917V4.75H9.2625L12.4292 3.325ZM13.8542 1.58333C14.0917 1.58333 14.25 1.74167 14.25 1.97917C14.25 2.21667 14.0917 2.375 13.8542 2.375C13.6167 2.375 13.4583 2.21667 13.4583 1.97917C13.4583 1.74167 13.6167 1.58333 13.8542 1.58333ZM18.2083 17.4167H1.58333V6.33333H18.2083V17.4167Z" fill="#5BD4D4"/></svg>